# xmcd
#
# Track frame offsets:
#	150
#	12812
#	25094
#	40524
#	52507
#	67758
#	79507
#	98658
#	108139
#	118710
#	132209
#	142058
#	151712
#	166244
#	180412
#	192927
#
# Disc length: 2758 seconds
#
# Revision: 1
# Processed by: cddbd v1.5.1PL0 Copyright (c) Steve Scherf et al.
# Submitted via: audiograbber 1.82.02
#
DISCID=ad0ac410
DTITLE=Ian Blundell - Remember This
DYEAR=1900
DGENRE=Country
TTITLE0=Lonesome Fugitive
TTITLE1=One Day At A Time
TTITLE2=Little Old Wine Drinker Me
TTITLE3=Seven Spanish Angels
TTITLE4=Back Home Again
TTITLE5=Single Drop
TTITLE6=Ghost Riders
TTITLE7=Pamela Brown
TTITLE8=Lookin Out My Backdoor
TTITLE9=You're My Best Friend
TTITLE10=Wings Of A Dove
TTITLE11=One Small Photograph Of You
TTITLE12=Daisy A Day
TTITLE13=Good Hearted Women
TTITLE14=There Goes My Everything
TTITLE15=I Don't Wanna Go To Work
EXTD=
EXTT0=
EXTT1=
EXTT2=
EXTT3=
EXTT4=
EXTT5=
EXTT6=
EXTT7=
EXTT8=
EXTT9=
EXTT10=
EXTT11=
EXTT12=
EXTT13=
EXTT14=
EXTT15=
PLAYORDER=
